# xmcd
#
# Track frame offsets: 
#        150
#        20263
#        36576
#        54101
#        67084
#        82942
#        100414
#        122097
#        149185
#
# Disc length: 2183 seconds
#
# Revision: 0
# Processed by: cddbd v1.5.2PL0 Copyright (c) Steve Scherf et al.
# Submitted via: ExactAudioCopy v1.0b3
#
DISCID=7e088509
DTITLE=Miriams Well - Indians and Clowns
DYEAR=2010
DGENRE=Rock
TTITLE0=Indians And Clowns
TTITLE1=More Than I
TTITLE2=Stay
TTITLE3=Give Me Some Love
TTITLE4=War No More
TTITLE5=Waitng On A Plane
TTITLE6=Big House
TTITLE7=Diamonds
TTITLE8=Did You Know That
EXTD=
EXTT0=
EXTT1=
EXTT2=
EXTT3=
EXTT4=
EXTT5=
EXTT6=
EXTT7=
EXTT8=
PLAYORDER=
